# xmcd
#
# Track frame offsets:
#	150
#	15667
#	29261
#	45013
#	56086
#	67845
#	79479
#	91551
#	105693
#	118990
#	133794
#	148907
#	161613
#	174379
#
# Disc length: 2544 seconds
#
# Revision: 1
# Processed by: cddbd v1.5.2PL0 Copyright (c) Steve Scherf et al.
# Submitted via: audiograbber 1.83.01
#
DISCID=b509ee0e
DTITLE=Mahalia Jackson - The Gospel Collection
DYEAR=2009
DGENRE=Gospel
TTITLE0=You'll never walk alone
TTITLE1=Just as I am
TTITLE2=Lord, don't move the mountain
TTITLE3=Highway to heaven
TTITLE4=Tell it, sing it, shout it
TTITLE5=Joshua fit the battle of Jericho
TTITLE6=Didn't it rain
TTITLE7=Prayer changes things
TTITLE8=Dig a little deeper (in god's love)
TTITLE9=I can put my trust in Jesus
TTITLE10=If you see my savior
TTITLE11=I'm glad salvation is free
TTITLE12=Shall I meet you over yonder
TTITLE13=There's not a friend like Jesus
EXTD=
EXTT0=
EXTT1=
EXTT2=
EXTT3=
EXTT4=
EXTT5=
EXTT6=
EXTT7=
EXTT8=
EXTT9=
EXTT10=
EXTT11=
EXTT12=
EXTT13=
PLAYORDER=
